<svg xmlns="http://www.w3.org/2000/svg" width="20" height="20">
    <defs>
        <linearGradient id="a" x1=".5" x2=".5" y2="1" gradientUnits="objectBoundingBox">
            <stop offset="0" stop-color="#f1474c"/>
            <stop offset="1" stop-color="#c5151b"/>
        </linearGradient>
    </defs>
    <path data-name="money_tit" d="M4.778 3A1.791 1.791 0 0 0 3 4.778v12.444A1.791 1.791 0 0 0 4.778 19h12.444A1.791 1.791 0 0 0 19 17.222V4.778A1.791 1.791 0 0 0 17.222 3zm0 4.444H10.8a.4.4 0 0 0-.026.127v.75a2.043 2.043 0 0 0-1.8 2.17c0 2.7 2.79 1.9 2.79 3.7 0 .9-.581.922-.7.922-.092 0-.628.042-.78-.814a.638.638 0 0 0-.637-.507h-.22a.648.648 0 0 0-.648.752 2.1 2.1 0 0 0 1.877 1.8v.67a.394.394 0 0 0 .068.208H4.778zm6.781 0h5.663v9.778H11.4a.39.39 0 0 0 .066-.208v-.67a2.02 2.02 0 0 0 1.816-2.167c0-2.587-2.791-2.093-2.79-3.681 0-.909.5-.937.609-.937.158 0 .491.112.618.724a.669.669 0 0 0 .646.559h.208a.662.662 0 0 0 .637-.812 2.061 2.061 0 0 0-1.627-1.687v-.772a.4.4 0 0 0-.024-.127z" transform="translate(-1 -1)" style="fill:url(#a)"/>
    <path data-name="Rectangle 3525" style="fill:none" d="M0 0h20v20H0z"/>
</svg>
