<svg xmlns="http://www.w3.org/2000/svg" width="20" height="20">
    <defs>
        <linearGradient id="a" x1=".5" x2=".5" y2="1" gradientUnits="objectBoundingBox">
            <stop offset="0" stop-color="#f1474c"/>
            <stop offset="1" stop-color="#c5151b"/>
        </linearGradient>
    </defs>
    <path data-name="pass_tit" d="M11 1a5.239 5.239 0 0 0-5.25 5.25v.875A1.755 1.755 0 0 0 4 8.875v8.75a1.755 1.755 0 0 0 1.75 1.75h10.5a1.755 1.755 0 0 0 1.75-1.75v-8.75a1.755 1.755 0 0 0-1.75-1.75V6.25A5.239 5.239 0 0 0 11 1zm0 1.75a3.428 3.428 0 0 1 3.5 3.5v.875h-7V6.25a3.428 3.428 0 0 1 3.5-3.5zm-3.5 9.625a.875.875 0 1 1-.875.875.878.878 0 0 1 .875-.875zm3.5 0a.875.875 0 1 1-.875.875.878.878 0 0 1 .875-.875zm3.5 0a.875.875 0 1 1-.875.875.878.878 0 0 1 .875-.875z" transform="translate(-1)" style="fill:url(#a)"/>
    <path data-name="Rectangle 3524" style="fill:none" d="M0 0h20v20H0z"/>
</svg>
